<?xml version="1.0" encoding="UTF-8" standalone="no"?>
<svg width="1200" height="630" viewBox="0 0 1200 630" fill="none" xmlns="http://www.w3.org/2000/svg">
  <!-- Background -->
  <rect width="1200" height="630" fill="#f8f9fa"/>
  
  <!-- Gradient Background -->
  <rect width="1200" height="630" fill="url(#paint0_linear)"/>
  
  <!-- Logo -->
  <g transform="translate(150, 200) scale(2.5)">
    <path d="M40 10C40 4.477 35.523 0 30 0H10C4.477 0 0 4.477 0 10V30C0 35.523 4.477 40 10 40H30C35.523 40 40 35.523 40 30V10Z" fill="#4A56E2"/>
    <path d="M30 8H10C8.895 8 8 8.895 8 10V30C8 31.105 8.895 32 10 32H30C31.105 32 32 31.105 32 30V10C32 8.895 31.105 8 30 8Z" fill="white"/>
    <path d="M26 14H14C13.448 14 13 14.448 13 15V25C13 25.552 13.448 26 14 26H26C26.552 26 27 25.552 27 25V15C27 14.448 26.552 14 26 14Z" fill="#4A56E2"/>
    <path d="M22 18H18C17.448 18 17 18.448 17 19V21C17 21.552 17.448 22 18 22H22C22.552 22 23 21.552 23 21V19C23 18.448 22.552 18 22 18Z" fill="white"/>
  </g>
  
  <!-- Text -->
  <text x="400" y="250" font-family="Arial, sans-serif" font-weight="bold" font-size="80" fill="#333333">TrustTune.io</text>
  <text x="400" y="330" font-family="Arial, sans-serif" font-size="40" fill="#666666">Production-Ready ML Score Calibration</text>
  
  <!-- Decorative Elements -->
  <path d="M900 150C950 150 950 200 1000 200" stroke="#4A56E2" stroke-width="4"/>
  <path d="M900 250C950 250 950 300 1000 300" stroke="#4A56E2" stroke-width="4"/>
  <path d="M900 350C950 350 950 400 1000 400" stroke="#4A56E2" stroke-width="4"/>
  
  <!-- Calibration Curve Illustration -->
  <path d="M150 450C200 400 250 380 300 370C350 360 400 350 450 330C500 310 550 280 600 250C650 220 700 200 750 190C800 180 850 180 900 190C950 200 1000 220 1050 250" stroke="#4A56E2" stroke-width="4" fill="none"/>
  <path d="M150 450L1050 450" stroke="#666666" stroke-width="2" stroke-dasharray="5,5"/>
  <path d="M150 450L150 250" stroke="#666666" stroke-width="2" stroke-dasharray="5,5"/>
  
  <!-- Gradient Definition -->
  <defs>
    <linearGradient id="paint0_linear" x1="0" y1="0" x2="1200" y2="630" gradientUnits="userSpaceOnUse">
      <stop stop-color="#f8f9fa"/>
      <stop offset="1" stop-color="#e9ecef"/>
    </linearGradient>
  </defs>
</svg>
